<svg width="24" height="24" viewBox="0 0 24 24" fill="none" xmlns="http://www.w3.org/2000/svg">
<g id="proicons:branch-fork-2">
<path id="Vector" d="M6.23929 7.91929C6.93938 7.91929 7.6108 7.64118 8.10584 7.14614C8.60088 6.6511 8.87899 5.97968 8.87899 5.27959C8.87899 4.5795 8.60088 3.90808 8.10584 3.41304C7.6108 2.918 6.93938 2.63989 6.23929 2.63989C5.5392 2.63989 4.86778 2.918 4.37274 3.41304C3.8777 3.90808 3.59959 4.5795 3.59959 5.27959C3.59959 5.97968 3.8777 6.6511 4.37274 7.14614C4.86778 7.64118 5.5392 7.91929 6.23929 7.91929ZM6.23929 7.91929V9.59909C6.23929 10.1083 6.44155 10.5966 6.80158 10.9566C7.16161 11.3166 7.64991 11.5189 8.15907 11.5189H11.0387M11.0387 11.5189H14.8783C15.3875 11.5189 15.8758 11.3166 16.2358 10.9566C16.5958 10.5966 16.7981 10.1083 16.7981 9.59909V7.91929M11.0387 11.5189V15.1185M16.7981 7.91929C17.4982 7.91929 18.1696 7.64118 18.6646 7.14614C19.1597 6.6511 19.4378 5.97968 19.4378 5.27959C19.4378 4.5795 19.1597 3.90808 18.6646 3.41304C18.1696 2.918 17.4982 2.63989 16.7981 2.63989C16.098 2.63989 15.4266 2.918 14.9315 3.41304C14.4365 3.90808 14.1584 4.5795 14.1584 5.27959C14.1584 5.97968 14.4365 6.6511 14.9315 7.14614C15.4266 7.64118 16.098 7.91929 16.7981 7.91929ZM11.0387 15.1185C10.3386 15.1185 9.66723 15.3966 9.17219 15.8916C8.67715 16.3866 8.39904 17.0581 8.39904 17.7582C8.39904 18.4582 8.67715 19.1297 9.17219 19.6247C9.66723 20.1197 10.3386 20.3979 11.0387 20.3979C11.7388 20.3979 12.4102 20.1197 12.9053 19.6247C13.4003 19.1297 13.6784 18.4582 13.6784 17.7582C13.6784 17.0581 13.4003 16.3866 12.9053 15.8916C12.4102 15.3966 11.7388 15.1185 11.0387 15.1185Z" stroke="black" stroke-width="1.43983" stroke-linecap="round" stroke-linejoin="round"/>
</g>
</svg>
